<svg width="20" height="20" fill="none" xmlns="http://www.w3.org/2000/svg"><g clip-path="url(#clip0)"><path d="M19.387 7.17v-.378c0-1.773-1.056-2.641-1.811-3.283-.076-.075-.227-.188-.34-.34-.075-.075-.075-.188-.075-.263 0-.189.113-.378.264-.49l.038-.039.113-.113s.038-.038.038-.075c.037-.038.075-.114.113-.151 0-.038.038-.038.038-.076.037-.075.037-.113.075-.188v-.038c0-.076.038-.151.038-.264v-.34c0-.641-.49-1.132-1.132-1.132h-4.151c-.642 0-1.132.49-1.132 1.132v.377c0 .076 0 .19.037.265v.037c0 .076.038.114.076.189l.038.038a.518.518 0 00.113.15l.038.038c.037.076.113.114.188.151a.877.877 0 01.302.453c0 .114 0 .227-.075.302-.076.076-.114.113-.114.151-.075.076-.188.151-.264.226-.792.642-1.849 1.51-1.849 3.284v4.264c-.679-.566-.905-1.057-.98-1.359.377-.189.64-.566.64-1.019 0-.641-.49-1.132-1.131-1.132H3.953c-.641 0-1.132.49-1.132 1.132 0 .453.302.868.68 1.057-.076.302-.34.792-.982 1.32C1.048 12.303.557 14.077.633 15.66v.114c0 .188.037.34.075.528 0 .038 0 .075.038.15l.113.454v.075c.038.113.076.264.113.377 0 .038.038.114.076.151v.038l.075.189C1.765 19.132 2.973 20 4.406 20H8.03c.83 0 1.585-.302 2.226-.83.34.49.868.83 1.51.83h5.81c.982 0 1.812-.792 1.812-1.811V7.169zM1.614 16.943c-.038-.113-.076-.188-.076-.302-.038-.075-.038-.113-.038-.188 0-.076-.037-.114-.037-.189-.038-.302-.076-.604-.076-.906 0-.34.038-.717.113-1.094v-.038c0-.075.038-.15.038-.264 0-.038.038-.113.038-.15.038-.076.038-.152.076-.227a.536.536 0 00.075-.227c0-.037.038-.075.038-.113h3.207c.227 0 .378.151.378.378v3.018c0 .227-.151.378-.378.378H1.576c.076-.038.038-.076.038-.076zm9.019.49c-.038.076-.076.19-.114.265 0 .038-.037.075-.037.075-.114.189-.227.378-.378.529l-.113.113a2.633 2.633 0 01-1.962.868H4.406c-1.019 0-1.887-.566-2.415-1.51h3.057c.641 0 1.132-.49 1.132-1.132v-3.018c0-.642-.49-1.133-1.132-1.133h-2.83c.226-.302.452-.603.754-.83.868-.717 1.132-1.396 1.245-1.811h.491c.226 0 .377-.151.377-.377 0-.227-.15-.378-.377-.378h-.792c-.227 0-.378-.15-.378-.377 0-.226.151-.378.378-.378h4.528c.226 0 .377.152.377.378s-.15.377-.377.377H6.633c-.227 0-.378.151-.378.378 0 .226.151.377.378.377H8.18c.113.415.377 1.094 1.245 1.811.189.151.377.34.528.528l.038.076c.075.113.15.226.264.34.038.037.038.075.076.15.037.076.075.114.113.19.038.075.113.188.15.263v.038c.416.906.529 1.962.416 2.906 0 .075-.038.188-.038.264 0 .075-.038.15-.038.226 0 .038 0 .076-.037.113a3.322 3.322 0 01-.189.566c-.038 0-.038.038-.075.114zm8-1.207h-3.397V7.924h3.396v8.302zm0-9.056h-4.151v9.81h4.15v1.208c0 .567-.453 1.057-1.056 1.057h-5.811a1.03 1.03 0 01-.944-.641c.264-.302.453-.68.642-1.095 0 0 0-.038.037-.038 0-.037.038-.075.038-.113.038-.075.038-.15.076-.226v-.038c.452-1.547.34-3.623-.868-5.207V6.792c0-1.434.83-2.113 1.585-2.717.113-.075.188-.15.264-.226l.15-.15c.227-.265.303-.567.265-.907 0-.037-.038-.113-.038-.15h.151c.227 0 .378-.151.378-.378 0-.226-.151-.377-.378-.377h-.49a.405.405 0 01-.227-.076l-.038-.037c-.037-.038-.037-.076-.075-.114v-.038c0-.037-.038-.075-.038-.113v-.377c0-.227.151-.377.378-.377h4.15c.227 0 .378.15.378.377v.377c0 .038 0 .113-.038.151 0 0 0 .038-.038.038-.037.038-.037.076-.075.076-.113.075-.189.113-.264.113h-2.151c-.227 0-.378.15-.378.377s.151.377.378.377h1.849c0 .076-.038.151-.038.227 0 .377.113.717.415.943.076.076.189.151.302.227.717.603 1.547 1.283 1.547 2.717v.415h-.038z" fill="#FF7F8E"/></g><defs><clipPath id="clip0"/></defs></svg>