<svg width="20" height="20" fill="none" xmlns="http://www.w3.org/2000/svg"><g clip-path="url(#clip0)" fill="#FF7F8E"><path d="M19.68 6.649a2.37 2.37 0 00-.989-.937 2.35 2.35 0 00.373-.783c.166-.616.08-1.26-.238-1.811a2.372 2.372 0 00-2.37-1.174A2.866 2.866 0 0014.492.097a2.866 2.866 0 00-2.625.618 2.372 2.372 0 00-2.64-.17 2.372 2.372 0 00-1.11 1.45c-.077.286-.1.578-.07.865a2.377 2.377 0 00-2.166 1.137 1.636 1.636 0 00-1.517.09l-.029.019a1.639 1.639 0 00-2.609.707l-.058-.003a1.625 1.625 0 00-1.166.457A1.626 1.626 0 000 6.416a1.63 1.63 0 00.87 1.477l1.511.8a2.56 2.56 0 00-.575 3.036l1.253 2.528a.39.39 0 10.7-.347l-.382-.771 1.453-.39a.39.39 0 10-.202-.754l-1.605.43-.517-1.043A1.774 1.774 0 012.48 9.86c.22-.488.644-.848 1.161-.987l1.077-.288a1.774 1.774 0 011.5.273c.243.175.435.405.562.667l-1.674.449a.39.39 0 00.202.754l1.654-.443.213 3.359-1.013.271a.39.39 0 00.202.755l.862-.23.077 1.207-.632.169a.39.39 0 10.202.754l.48-.128.131 2.058c.02.32-.19.613-.5.696a.678.678 0 01-.78-.353l-.883-1.781a.39.39 0 00-.7.346l.883 1.782a1.462 1.462 0 001.683.76 1.461 1.461 0 001.077-1.5l-.529-8.308a2.559 2.559 0 00-2.038-2.346l.538-.858a2.38 2.38 0 001.664.694 2.361 2.361 0 001.862.744 7.627 7.627 0 01-.256 2.227l-.765 2.854a1.079 1.079 0 00.766 1.326l1.954.524a1.082 1.082 0 001.326-.766l.781-2.917c.19-.71.48-1.383.861-2.007a2.365 2.365 0 002.009.303 2.357 2.357 0 001.175.311 2.392 2.392 0 002.307-1.77 2.37 2.37 0 00-.239-1.811zM5.941 5.047a.852.852 0 01-.008.897L4.788 7.772l-.01.002.129-2.333a1.638 1.638 0 00-.114-.698.856.856 0 011.15.304zm-3.41-.125a.856.856 0 011.595.475l-.142 2.574-.02.005-1.41-2.158a.852.852 0 01-.024-.896zm-1.296 2.28A.852.852 0 01.78 6.43a.852.852 0 01.871-.84c.035.23.117.453.25.656L3.18 8.202l-.033.013-1.91-1.012zm11.576 4.22l-.192.716-.374-.1a.39.39 0 10-.203.754l.375.1-.387 1.446a.302.302 0 01-.37.213l-1.954-.524a.3.3 0 01-.213-.37l.132-.493.706.189a.39.39 0 00.202-.755l-.706-.189.43-1.605.03-.12.737.198a.39.39 0 10.202-.755l-.782-.21a8.398 8.398 0 00.09-1.718c.258-.106.5-.257.709-.45a2.2 2.2 0 00.66.471l-.203.754a.39.39 0 00.755.203l.202-.752c.276.026.554 0 .82-.076.083.26.209.503.37.718a8.408 8.408 0 00-1.036 2.354zm6.351-3.164c-.111.415-.377.76-.748.975a1.596 1.596 0 01-1.71-.067.39.39 0 00-.364-.041 1.59 1.59 0 01-1.003.059 1.61 1.61 0 01-1.182-1.41.39.39 0 00-.579-.307 1.47 1.47 0 01-1.978-.53.39.39 0 00-.655-.023 1.61 1.61 0 01-1.728.63 1.592 1.592 0 01-.84-.553.39.39 0 00-.335-.147 1.6 1.6 0 01-1.38-.6 1.628 1.628 0 00-.159-1.758 1.6 1.6 0 011.831-.792c.03.008.064.02.1.032l.012.004a.39.39 0 00.49-.515 1.59 1.59 0 01-.064-1.017 1.59 1.59 0 01.748-.975 1.595 1.595 0 011.977.298.39.39 0 00.584-.013 2.08 2.08 0 012.11-.656 2.08 2.08 0 011.499 1.623.39.39 0 00.499.303 1.6 1.6 0 01.886-.018 1.608 1.608 0 011.136 1.967 1.59 1.59 0 01-.564.848.39.39 0 00.166.692l.012.002c.038.008.073.014.103.022a1.608 1.608 0 011.136 1.967z"/><path d="M4.466 15.382a.394.394 0 00-.667.276.393.393 0 00.39.391.393.393 0 00.277-.667z"/></g><defs><clipPath id="clip0"/></defs></svg>