<svg width="20" height="20" fill="none" xmlns="http://www.w3.org/2000/svg"><g clip-path="url(#clip0)" fill="#FF7F8E"><path d="M15.018 5.809c-.535-.858-1.369-1.869-2.347-2.847-.979-.979-1.99-1.812-2.848-2.348C8.792-.03 8.113-.166 7.75.2c-.382.382-.211 1.115.523 2.239l.087.133 1.028.147-.466.622.172.212c.377.465.8.93 1.249 1.389-.165-.007-.33-.015-.494-.015-3.098 0-5.434 1.055-5.434 2.454v10.166C4.414 18.945 6.75 20 9.848 20s5.433-1.055 5.433-2.454V7.991a.611.611 0 00.153-.108c.364-.364.228-1.043-.416-2.074zm-5.17-.181c.42 0 .845.023 1.264.069l.077.07.187.168.171.153c.1.088.203.176.307.263l.144.118a15.323 15.323 0 001.187.883 9.123 9.123 0 00.399.247 6.32 6.32 0 00.51.26c.038.017.077.036.115.051.025.01.052.025.077.034-.504.497-1.636.95-3.15 1.118-.064.007-.128.015-.194.021a12.783 12.783 0 01-.473.033l-.162.008a12.6 12.6 0 01-.46.01c-2.789 0-4.732-.924-4.732-1.753 0-.83 1.943-1.753 4.733-1.753zm-4.733 6.705c.259.087.993.284.993.284 2.333.547 2.634.617 2.866 2.5.027.224.008.526-.237.697-.193.134-.996.478-3.276-.7a7 7 0 01-.346-.192v-2.59zm9.465 5.214c0 .829-1.943 1.752-4.732 1.752-2.79 0-4.733-.923-4.733-1.752v-.43c.95.857 2.758 1.463 4.733 1.463 1.974 0 3.781-.606 4.732-1.462v.429zm0-1.753c0 .84-1.987 2.085-4.732 2.085-2.746 0-4.733-1.245-4.733-2.085v-.07l.024.013c1.354.7 2.302.932 2.963.932.482 0 .811-.123 1.035-.28.416-.289.605-.771.532-1.357-.288-2.342-1.098-2.548-3.424-3.094 0 0-.833-.24-1.13-.35v-1.23c.917.736 2.653 1.21 4.733 1.21 2.08 0 3.816-.474 4.732-1.21v5.436zm0-6.68c0 .83-1.943 1.754-4.732 1.754-2.79 0-4.733-.924-4.733-1.753v-.492c.02.016.044.03.065.045.08.061.165.12.256.177l.113.07c.113.065.233.128.36.187l.05.025c.145.066.3.127.463.185.046.017.094.032.14.047.126.042.256.081.39.118.054.015.107.03.162.043.17.043.347.083.531.118l.04.008c.196.037.401.067.61.093a12.325 12.325 0 00.67.063 13.259 13.259 0 00.883.032 12.84 12.84 0 001.977-.16c.116-.02.23-.04.343-.063l.053-.011a8.64 8.64 0 00.737-.189l.032-.01a5.84 5.84 0 00.985-.398l.035-.018c.211-.113.408-.232.57-.362v.492zm.352-1.736l-.055-.003c-.488-.028-1.75-.75-3.37-2.269l-.084-.079h-.002a20.307 20.307 0 01-1.61-1.706l.847-1.13-1.884-.27C8.266 1.114 8.247.784 8.254.7c.373-.064 1.919.756 3.921 2.758 2.003 2.004 2.829 3.559 2.757 3.921z"/><path d="M8.096 6.006l.348.608L5.99 8.016l-.347-.608 2.453-1.402zm2.471.596L7.412 8.705l-.389-.583 3.155-2.103.39.583zm1.419.34L9.181 9.045l-.42-.56 2.805-2.104.42.56zm1.06.694l-1.752 1.402-.439-.548 1.753-1.402.438.548z"/></g><defs><clipPath id="clip0"/></defs></svg>