<svg width="20" height="20" fill="none" xmlns="http://www.w3.org/2000/svg"><g clip-path="url(#clip0)" fill="#fff"><path d="M19.993 12.212a.998.998 0 00-.993-.879h-.453c.078-.213.119-.439.12-.666a2.001 2.001 0 00-1.702-1.976A2.04 2.04 0 0017 8.333a2.001 2.001 0 00-1.702-1.975c.023-.118.035-.238.035-.358a2.003 2.003 0 00-1.586-1.956c.836-1.143.595-2.689.582-2.765a.333.333 0 00-.33-.279 4.634 4.634 0 00-2.989 1.137c-.326-.851-.806-1.67-1.505-2.09a.334.334 0 00-.343 0c-1.507.905-1.997 3.21-2.123 3.99a1.995 1.995 0 00-2.337 2.321c-.977.148-1.7.987-1.702 1.975 0 .12.013.24.035.358-.977.148-1.7.987-1.702 1.976.001.227.042.453.12.666H1a.998.998 0 00-.238 1.968l2.428 6.07c.15.381.519.63.928.629h11.764a.995.995 0 00.929-.629l2.427-6.07a.998.998 0 00.755-1.09zm-3.445-2.865l.013-.003c.035-.003.07-.01.106-.01.736 0 1.332.597 1.333 1.333 0 .235-.064.465-.185.666h-2.297a1.305 1.305 0 01-.068-1.207l.003-.004c.006-.014.014-.026.02-.039.02-.042.043-.084.068-.124a1.297 1.297 0 01.125-.164c.226-.257.541-.417.882-.448zM14.88 7.014c.005 0 .009-.003.013-.003.036-.003.07-.01.106-.01a1.333 1.333 0 011.278 1.704A2.004 2.004 0 0015 9.563a2.003 2.003 0 00-1.278-.858 1.298 1.298 0 01.061-.912l.003-.005.02-.038c.021-.043.044-.084.068-.124A1.296 1.296 0 0114 7.462c.226-.257.542-.417.882-.448zM7.055 8.705a1.296 1.296 0 01.062-.912l.003-.005.02-.038c.02-.043.043-.084.068-.124a1.304 1.304 0 01.125-.164c.225-.257.541-.417.881-.448.005 0 .009-.003.013-.003.036-.003.07-.01.106-.01.037 0 .07.007.106.01.005 0 .009.002.013.003a1.335 1.335 0 011.093.77l.002.004a1.297 1.297 0 01.064.916 2.004 2.004 0 00-1.278.86 2.004 2.004 0 00-1.278-.859zM8 10.667c0 .235-.064.465-.185.666H5.518a1.305 1.305 0 01-.068-1.207l.003-.004c.006-.014.014-.026.02-.039.02-.042.043-.084.068-.124a1.304 1.304 0 01.125-.164c.226-.257.541-.417.882-.448l.013-.003c.035-.003.07-.01.106-.01.036 0 .07.007.106.01.004 0 .008.003.013.003a1.335 1.335 0 011.093.77l.002.005c.078.171.119.357.119.545zm.783-.54l.003-.005c.006-.014.014-.025.02-.039.021-.042.044-.084.068-.124A1.307 1.307 0 019 9.795c.226-.257.542-.417.882-.448.005 0 .009-.002.013-.003.036-.003.07-.01.106-.01.036 0 .07.007.106.01.005 0 .009.003.013.003a1.335 1.335 0 011.093.77l.002.005a1.305 1.305 0 01-.066 1.211H8.852a1.305 1.305 0 01-.068-1.207zm1.606-1.422a1.298 1.298 0 01.061-.912l.003-.005.02-.038c.02-.043.043-.084.068-.124a1.296 1.296 0 01.125-.164c.226-.257.541-.417.882-.448.004 0 .008-.003.013-.003.035-.003.07-.01.106-.01.036 0 .07.007.106.01l.013.003a1.335 1.335 0 011.093.77l.002.004a1.295 1.295 0 01.064.916 2.004 2.004 0 00-1.278.86 2.003 2.003 0 00-1.278-.859zm1.728 1.421l.003-.004c.006-.014.014-.025.02-.039.02-.042.043-.084.068-.124a1.297 1.297 0 01.125-.164 1.33 1.33 0 01.881-.448c.005 0 .009-.002.013-.003.036-.003.07-.01.106-.01.037 0 .07.007.107.01l.012.003a1.335 1.335 0 011.093.77l.002.005a1.305 1.305 0 01-.066 1.211h-2.296a1.305 1.305 0 01-.068-1.207zm2.056-5.164a1.33 1.33 0 01.438 1.41 2.004 2.004 0 00-1.278.858 2.004 2.004 0 00-1.278-.858 1.298 1.298 0 01.206-1.157c.015-.02.033-.04.05-.06a1.326 1.326 0 01.398-.326c.024-.012.046-.027.07-.038a1.317 1.317 0 011.394.171zm-.474-3.283c.028.547-.024 1.731-.899 2.388l-.012.01c-.004 0-.006.002-.01.003-.105.03-.207.07-.306.118l-.031.015a1.998 1.998 0 00-.276.167l-.022.016c.168-.6.393-1.048.524-1.063a.333.333 0 100-.666c-.578 0-.928.724-1.13 1.406a12.042 12.042 0 00-.297-1.256 4.148 4.148 0 012.46-1.138zm-2.636 3.526a1.318 1.318 0 01.27.795c0 .126-.019.251-.055.372A2.004 2.004 0 0010 7.23a2.004 2.004 0 00-1.278-.858A1.297 1.297 0 018.667 6a1.31 1.31 0 01.075-.424l.003-.005c.105-.306.318-.564.6-.725a1.321 1.321 0 01.328-.134c.028-.007.057-.015.087-.021a1.23 1.23 0 01.53.01c.026.005.048.015.073.022.07.02.139.045.205.075.02.01.04.023.06.034a1.323 1.323 0 01.435.373zM9.33.735c.57.44.955 1.262 1.21 2.07.002.005.001.01.003.014.141.455.254.918.337 1.387l-.027-.011a2.026 2.026 0 00-.346-.127l-.076-.02a1.998 1.998 0 00-.144-.025c-.023-.003-.046-.008-.07-.01a1.875 1.875 0 00-.453.002l-.057.009-.041.006V3A.333.333 0 109 3v1.27a2.04 2.04 0 00-.667.627 2.015 2.015 0 00-.465-.492 2.002 2.002 0 00-.187-.126l-.004-.002c.069-.477.441-2.643 1.654-3.542zM6.667 4.667a1.332 1.332 0 011.25.89l.003.005c.051.14.078.289.08.438 0 .126-.019.251-.055.372a2.004 2.004 0 00-1.278.858 2.004 2.004 0 00-1.278-.858A1.296 1.296 0 015.333 6a1.335 1.335 0 011.334-1.333zM5 7c.036 0 .07.008.106.01l.013.004a1.335 1.335 0 011.093.77l.002.004a1.297 1.297 0 01.064.916A2.004 2.004 0 005 9.565a2.004 2.004 0 00-1.278-.859 1.295 1.295 0 01-.055-.372C3.667 7.597 4.264 7.001 5 7zM3.333 9.333c.037 0 .07.008.107.011.004 0 .008.003.013.003a1.335 1.335 0 011.092.77l.002.005a1.305 1.305 0 01-.066 1.211H2.186A1.305 1.305 0 012 10.667c0-.736.597-1.333 1.333-1.334zm14.641 5.334h-8.64a.333.333 0 100 .666h8.374l-.8 2h-1.241a.333.333 0 100 .667h.974l-.45 1.124a.332.332 0 01-.309.21H4.118a.332.332 0 01-.31-.21L3.36 18h7.308a.333.333 0 000-.667H3.092l-.8-2h2.041a.333.333 0 100-.666H2.026l-.534-1.334h17.016l-.534 1.334zm1.026-2H1A.333.333 0 111 12h18a.333.333 0 010 .667z"/><path d="M12 18h2.333a.333.333 0 000-.667H12A.333.333 0 0012 18zm-6.333-2.667H8a.333.333 0 100-.666H5.667a.333.333 0 100 .666z"/></g><defs><clipPath id="clip0"/></defs></svg>