<svg width="20" height="20" fill="none" xmlns="http://www.w3.org/2000/svg"><g clip-path="url(#clip0)" fill="#FF7F8E"><path d="M15.782 2.115a4.74 4.74 0 00-1.934.149 4.826 4.826 0 00-7.696 0 4.756 4.756 0 00-1.934-.149C1.834 2.425.02 4.465 0 6.861a4.812 4.812 0 003.658 4.728c.516.128.897.57.947 1.099l.289 3.035.165 1.734c.07.74 1.007 1.248 1.4 1.43a8.794 8.794 0 003.54.742 8.785 8.785 0 003.407-.683c.242-.1 1.453-.643 1.534-1.489l.165-1.734.289-3.035c.05-.53.43-.971.947-1.1A4.813 4.813 0 0020 6.862c-.021-2.397-1.834-4.437-4.218-4.746zM13.14 18.31a8.138 8.138 0 01-6.283-.001c-.43-.18-1.08-.595-1.111-.917l-.043-.447a9.787 9.787 0 008.593 0l-.043.447c-.03.322-.68.738-1.113.918zm3.035-7.391a1.95 1.95 0 00-1.467 1.703l-.334 3.504c-1.38.742-2.85 1.122-4.374 1.122-1.524 0-2.994-.38-4.375-1.122l-.333-3.504a1.949 1.949 0 00-1.467-1.703A4.125 4.125 0 01.69 6.867C.707 4.813 2.262 3.064 4.306 2.8a4.075 4.075 0 011.868.195l.25.086.148-.219a4.138 4.138 0 016.856 0l.148.219.25-.086a4.081 4.081 0 011.867-.194c2.044.264 3.6 2.013 3.617 4.067a4.124 4.124 0 01-3.135 4.052z"/><path d="M6.509 12.079a.345.345 0 00-.3.384l.345 2.759a.345.345 0 10.684-.086l-.344-2.758a.347.347 0 00-.385-.3zm2.456.686a.345.345 0 00-.345.345v2.759a.345.345 0 00.69 0V13.11a.345.345 0 00-.345-.345zm4.525-.686a.347.347 0 00-.384.299l-.345 2.758a.344.344 0 10.684.086l.345-2.759a.345.345 0 00-.3-.384zm-2.456.686a.345.345 0 00-.345.345v2.759a.345.345 0 00.69 0V13.11a.345.345 0 00-.345-.345zM5.52 3.8c-2.878-.024-3.438 2.316-3.443 2.34a.344.344 0 10.674.147c.004-.018.417-1.837 2.763-1.798.184-.012.346-.15.348-.34a.345.345 0 00-.341-.35zm2.545-1.308a.345.345 0 10.422.547c.014-.012 1.455-1.098 3.04.009a.343.343 0 00.48-.085.345.345 0 00-.085-.48c-1.597-1.115-3.221-.481-3.857.01z"/></g><defs><clipPath id="clip0"/></defs></svg>