<svg width="20" height="20" fill="none" xmlns="http://www.w3.org/2000/svg"><g clip-path="url(#clip0)" fill="#FF7F8E"><path d="M19.24.765c-.7-.699-1.744-.929-2.942-.648-1.064.25-2.15.887-3.058 1.795a7.104 7.104 0 00-1.455 2.069L9.15 3.829a.98.98 0 00-.75.285L7.365 5.151a.293.293 0 10.414.414L8.815 4.53c.08-.08.19-.122.302-.115l2.445.141a5.051 5.051 0 00-.117.414 4.063 4.063 0 00-.11 1.173 1.79 1.79 0 002.631 2.424c.002 0 .002-.002.003-.003.628-.677.625-1.71.046-2.382-.284-.33-.67-.54-1.09-.603.012-.081.028-.165.048-.25a3.84 3.84 0 01.231-.678l1.335.077c.398.023.716.34.739.739l.313 5.422a.395.395 0 01-.115.302l-8.054 8.053a.582.582 0 01-.823 0L.76 13.406a.583.583 0 010-.824l6.02-6.02a.293.293 0 10-.414-.415l-6.02 6.02a1.17 1.17 0 000 1.653l5.837 5.838a1.168 1.168 0 001.653 0l8.053-8.054a.982.982 0 00.286-.75l-.152-2.634a7.11 7.11 0 002.069-1.456c.908-.908 1.545-1.994 1.795-3.057.28-1.198.05-2.243-.649-2.942zm-7.433 7.433a1.204 1.204 0 01-.298-1.207 2.518 2.518 0 001.508 1.505 1.201 1.201 0 01-1.21-.298zm1.764-1.634c.133.154.22.335.261.524-.26-.037-.475-.134-.628-.287a1.08 1.08 0 01-.289-.63c.253.056.483.191.656.393zm5.746-2.991c-.224.959-.806 1.945-1.638 2.777a6.626 6.626 0 01-1.692 1.238l-.025-.435a6.347 6.347 0 001.436-1.084 6.48 6.48 0 00.876-1.083.293.293 0 00-.494-.316 5.89 5.89 0 01-.797.985 5.897 5.897 0 01-1.059.843l-.061-1.066a1.372 1.372 0 00-1.29-1.29l-1.067-.062c.227-.368.511-.726.844-1.059.704-.704 1.523-1.193 2.306-1.376.499-.117 1.112-.132 1.474.23.3.3.382.824.23 1.473a3.522 3.522 0 01-.04.157.293.293 0 00.563.16c.017-.06.033-.123.047-.183.2-.854.063-1.572-.386-2.021-.516-.517-1.305-.555-2.021-.387-.888.209-1.807.753-2.587 1.533-.702.702-1.305 1.615-1.533 2.587-.167.713-.133 1.502.387 2.021.258.259.608.416 1.024.462a1.186 1.186 0 01-.183.377 2.01 2.01 0 01-1.123-.558c-.55-.55-.725-1.4-.492-2.393.245-1.043.885-2.023 1.639-2.777.832-.832 1.818-1.414 2.777-1.639.993-.232 1.843-.058 2.393.493.55.55.725 1.4.492 2.393z"/><path d="M7.443 9.293a1.029 1.029 0 000 2.056 1.029 1.029 0 000-2.056zm0 1.47a.442.442 0 110-.885.442.442 0 010 .885z"/><path d="M9.471 10.321a2.03 2.03 0 00-2.028-2.028 2.03 2.03 0 00-2.028 2.028c0 .564.23 1.074.603 1.442H4.103a.794.794 0 000 1.587h1.915a2.022 2.022 0 00-.603 1.443 2.03 2.03 0 002.028 2.028 2.03 2.03 0 002.028-2.029 2.02 2.02 0 00-.604-1.442h1.916a.794.794 0 000-1.587h-.285a.293.293 0 100 .586h.285a.208.208 0 010 .415h-6.68a.208.208 0 010-.415H9.13a.293.293 0 000-.586h-.264a2.02 2.02 0 00.604-1.442zm-.586 4.472c0 .795-.647 1.442-1.442 1.442A1.444 1.444 0 016 14.793c0-.796.647-1.443 1.442-1.443.795 0 1.442.647 1.442 1.443zM6.001 10.32c0-.795.647-1.442 1.442-1.442.795 0 1.442.647 1.442 1.442 0 .795-.647 1.442-1.442 1.442A1.444 1.444 0 016 10.321z"/><path d="M7.443 15.82a1.029 1.029 0 000-2.055 1.029 1.029 0 000 2.055zm0-1.47a.442.442 0 11-.001.885.442.442 0 010-.884z"/></g><defs><clipPath id="clip0"/></defs></svg>