<svg width="20" height="20" fill="none" xmlns="http://www.w3.org/2000/svg"><g clip-path="url(#clip0)" fill="#FF7F8E"><path d="M16.544 2.942a.391.391 0 10.555.553.391.391 0 00-.555-.553z"/><path d="M16.544.005c-2.3.089-5.094 1.175-7.317 3.119A4.31 4.31 0 005.264 4.28a1.173 1.173 0 000 1.657l1.27 1.27c-.804 2.317-.958 4.79-.978 6.052a4.266 4.266 0 00-2.365-.708A4.267 4.267 0 00.153 13.81a.39.39 0 000 .553 4.268 4.268 0 003.038 1.258c.518 0 1.021-.091 1.493-.266a4.299 4.299 0 00-.266 1.493 4.27 4.27 0 001.258 3.038.39.39 0 00.553 0 4.268 4.268 0 001.258-3.038c0-.854-.248-1.67-.708-2.365 1.262-.02 3.736-.173 6.053-.977l1.269 1.27c.457.456 1.2.456 1.657 0a4.31 4.31 0 001.157-3.963c1.711-1.96 3.03-4.728 3.12-7.359.039-1.178-.242-2.187-.753-2.697-.517-.517-1.54-.798-2.738-.752zM5.816 4.834A3.527 3.527 0 018.5 3.81c-.656.68-1.212 1.552-1.659 2.6L5.816 5.386a.391.391 0 010-.552zm-4.8 9.253a3.489 3.489 0 012.175-.754c.8 0 1.558.265 2.175.754a3.488 3.488 0 01-2.175.753c-.8 0-1.558-.265-2.175-.753zm4.936 4.936a3.488 3.488 0 01-.753-2.175c0-.8.265-1.558.753-2.175.489.617.754 1.376.754 2.175 0 .8-.265 1.558-.754 2.175zm9.253-4.8a.39.39 0 01-.552 0l-1.024-1.024c1.048-.447 1.92-1.003 2.6-1.66.054.989-.31 1.97-1.024 2.684zm4.049-10.795c-.037 1.08-.33 2.32-.829 3.508-1.091.267-2.282.056-3.296-.592a.39.39 0 00-.42.658c.999.638 2.167.927 3.314.797a12.4 12.4 0 01-1.826 2.647c-.142.157-.29.313-.44.463-2.159 2.16-6.358 2.806-9.42 2.794-.014-3.06.63-7.258 2.793-9.422a12.402 12.402 0 013.11-2.267 5.054 5.054 0 00.341 2.43.39.39 0 00.725-.29 4.188 4.188 0 01-.202-2.541c1.175-.493 2.4-.786 3.47-.828 1.086-.042 1.865.233 2.156.524.286.286.56 1.053.524 2.12z"/><path d="M13.47 5.363a.391.391 0 10.555.553.391.391 0 00-.555-.553z"/></g><defs><clipPath id="clip0"/></defs></svg>