<svg width="20" height="20" fill="none" xmlns="http://www.w3.org/2000/svg"><path d="M12.757 8.907a.352.352 0 00.446-.22.62.62 0 01.786-.387 1.325 1.325 0 001.678-.828.352.352 0 10-.667-.226.62.62 0 01-.786.387 1.327 1.327 0 00-1.678.828.353.353 0 00.22.446zm.833-2.452a.353.353 0 00.446-.22.616.616 0 01.785-.388A1.325 1.325 0 0016.5 5.02a.353.353 0 00-.667-.226.62.62 0 01-.785.388 1.312 1.312 0 00-1.011.066 1.315 1.315 0 00-.668.761.352.352 0 00.22.447zm.831-2.452a.354.354 0 00.447-.221.458.458 0 01.58-.286c.294.1.61.08.887-.058.279-.137.487-.374.587-.668a.352.352 0 00-.667-.227.456.456 0 01-.58.286 1.164 1.164 0 00-1.474.726.353.353 0 00.22.448z" fill="#FF7F8E"/><path d="M16.971 8.881a.458.458 0 00-.2-.075c.699-2.272 1.082-4.499 1.137-6.62.018-.666-.308-1.557-.965-1.969-.316-.198-.833-.361-1.503-.016-1.052.542-1.803 2.138-2.407 3.42l-.103.218a2.039 2.039 0 00-1.115-1.412 1.679 1.679 0 00-1.306-1.298A1.214 1.214 0 009.476.161a1.197 1.197 0 00-.747.154 1.277 1.277 0 00-.623-.162c-.612 0-1.126.427-1.26.998-.67.183-1.16.797-1.165 1.51a1.76 1.76 0 00-1.2 2.344 1.383 1.383 0 00-.194 1.422c-.351-.383-.846-.697-1.402-.676a.353.353 0 00.01.704l.035-.001c.33 0 .636.218.86.472-.559.16-1.232.422-1.546 1.014-.189.358-.21.796-.085 1.298a.611.611 0 00-.088.346l.6 8.513A2.005 2.005 0 004.672 20h9.88a2.003 2.003 0 002.003-1.897l.614-8.809v-.006a.457.457 0 00-.199-.407zm-3.754-4.036c.14-.26.291-.582.452-.924.53-1.123 1.254-2.662 2.093-3.095.306-.157.57-.16.806-.013.408.256.648.903.637 1.355-.054 2.081-.434 4.271-1.13 6.51-.023.073-.074.222-.146.426l-.6.266a.358.358 0 00-.038.02 1.113 1.113 0 01-.562.157 1.112 1.112 0 01-.561-.157l-.25-.15a1.817 1.817 0 00-.937-.26h-.011a1.814 1.814 0 00-.948.26l-.25.15c-.14.084-.295.125-.451.142l.028-.09a25.706 25.706 0 01.718-2.09c.044-.112.087-.225.132-.336.307-.748.645-1.474 1.018-2.17zM8.73 5.68l.12-.154v-.001a.754.754 0 00.14-.639l1.469-.321c.01.045.02.09.037.131a.79.79 0 00.347.39l.167.089c.048.025.095.05.143.077l.07.037c.041.024.082.05.122.076a2.067 2.067 0 01.217.154 1.53 1.53 0 01.341.401c-.15.33-.29.666-.425 1.005l-.065.156c-.386.097-.758.28-1.219.608-.58.412-1.012.522-1.723.419l-.214-.978c-.145-.662.17-1.062.473-1.45zm1.746-2.137a.148.148 0 01.17.112.143.143 0 01-.02.11.143.143 0 01-.09.063l-1.945.425a.148.148 0 01-.173-.111.148.148 0 01.111-.173l1.033-.226.914-.2zM9.338 8.987c-.027.001-.054.002-.08.005-.192.02-.382.068-.562.149l-.067-.308c.102.008.203.017.297.017.614 0 1.108-.183 1.676-.587a4.3 4.3 0 01.488-.304 23.77 23.77 0 00-.096.276l-.068.198c-.104.313-.202.629-.294.947l-.234-.14a1.816 1.816 0 00-.936-.26l-.013.001c-.037 0-.074.004-.11.006zm-4.21-3.64l.23-.19-.149-.258a1.06 1.06 0 01.874-1.59l.427-.017-.1-.416a.876.876 0 01.78-1.073l.326-.025v-.35a.591.591 0 01.59-.57c.184 0 .316.083.394.153l.246.223L8.983 1a.498.498 0 01.41-.14.508.508 0 01.431.546l-.041.393h.396a.97.97 0 01.964.9l.016.232.218.076c.55.194.912.714.9 1.297a1.27 1.27 0 01-.23.698c-.236-.2-.49-.334-.704-.447l-.162-.087c-.015-.009-.033-.023-.04-.06a.2.2 0 01.05-.157.756.756 0 00.165-.65l-.043-.194a.745.745 0 00-.328-.47.744.744 0 00-.565-.102l-.094.02h-.003l-1.033.227-1.008.22a.744.744 0 00-.471.328.745.745 0 00-.102.565l.021.096v.002l.021.096a.749.749 0 00.436.527c.054.023.1.068.116.113.01.026.004.04-.017.074-.034.047-.072.094-.11.143-.04.05-.08.101-.12.155l-.04.054a4.2 4.2 0 00-.088.123l-.046.07a2.95 2.95 0 00-.078.128 2.317 2.317 0 00-.117.23c-.01.023-.021.044-.03.068a1.929 1.929 0 00-.08.241l-.009.042a1.92 1.92 0 00-.04.223c-.003.031-.004.064-.006.096-.003.041-.008.08-.008.124l-.004-.005-.015-.018a4.21 4.21 0 00-.242-.29 3.309 3.309 0 00-.156-.158l-.05-.049a2.442 2.442 0 00-.2-.16c-.018-.014-.037-.025-.056-.038a1.813 1.813 0 00-.383-.196c-.017-.007-.035-.015-.053-.02a1.444 1.444 0 00-.174-.045l-.02-.001c-.012-.003-.023-.007-.035-.009-.041-.006-.08-.004-.12-.006-.028-.002-.056-.008-.084-.008l-.026.002a1.19 1.19 0 00-.16.014c-.027.003-.053.005-.08.01-.07.013-.136.03-.203.052l-.03.009c-.175.06-.342.144-.497.245a.686.686 0 01.202-.782zM2.867 8.269c.149-.28.51-.494 1.138-.674a1.9 1.9 0 00.787-.451c.1-.096.194-.178.285-.251.284-.231.528-.356.75-.385l.014-.002a.715.715 0 01.204.006c.017.003.035.01.053.014a.729.729 0 01.098.03c.02.007.042.02.063.03.03.014.061.028.092.046.024.015.047.033.071.05.029.02.058.038.086.062.027.021.054.047.08.071.027.025.054.047.08.074.03.03.06.065.09.098.025.027.049.052.074.081.033.04.067.086.1.13.022.029.043.054.064.084.039.054.078.113.116.172l.051.076c.056.089.113.183.17.282.258.458.344 1.133.232 1.721a1.092 1.092 0 01-.437-.144l-.251-.15a1.816 1.816 0 00-.936-.26H5.93a1.814 1.814 0 00-.948.26l-.122.073a1.364 1.364 0 01-.69.194 1.36 1.36 0 01-.69-.194l-.474-.284a.601.601 0 00-.199-.076c-.055-.278-.035-.503.06-.683zm12.988 9.791a1.301 1.301 0 01-1.3 1.236h-9.88a1.303 1.303 0 01-1.301-1.242l-.586-8.322.306.184c.332.2.705.297 1.077.295.372.002.744-.095 1.076-.295l.122-.073a1.11 1.11 0 01.561-.158c.195.002.389.054.562.158l.251.15c.318.191.677.273 1.033.253.031-.001.063-.001.095-.004l.012-.003c.24-.027.476-.103.693-.226.02-.008.043-.008.062-.02l.25-.15c.174-.104.368-.156.562-.158.194.002.388.054.562.158l.25.15c.267.16.564.243.862.255l.018.001c.103.003.206 0 .308-.014.058-.008.115-.022.172-.036.028-.006.056-.012.083-.02.156-.043.31-.1.452-.186l.251-.15a1.1 1.1 0 01.561-.158 1.1 1.1 0 01.562.158l.251.15c.29.174.617.26.943.259h.016c.316 0 .633-.082.916-.247l.691-.307c.015-.007.025-.02.039-.028l.054-.024-.586 8.414z" fill="#FF7F8E"/><path d="M4.182 15.136h2.464a.352.352 0 100-.704H4.182a.352.352 0 000 .704zm0 1.408H7.35a.352.352 0 100-.704H4.182a.352.352 0 100 .704zm3.872.704H4.182a.352.352 0 100 .703h3.872a.352.352 0 100-.703zm2.112 0h-.704a.352.352 0 100 .703h.704a.352.352 0 100-.703z" fill="#FF7F8E"/></svg>