<svg width="20" height="20" fill="none" xmlns="http://www.w3.org/2000/svg"><g clip-path="url(#clip0)" fill="#FF7F8E"><path d="M12.46 3.36a.332.332 0 00-.363.07.383.383 0 00-.07.11.33.33 0 00.306.46.33.33 0 00.237-.096.495.495 0 00.073-.11.327.327 0 00-.003-.254.3.3 0 00-.18-.18z"/><path d="M14.73 0H12a.333.333 0 100 .667h2.73A3.89 3.89 0 0118.667 4.5a3.89 3.89 0 01-3.937 3.833 3.963 3.963 0 01-3.107-1.48l5.812-1.869a.333.333 0 00-.02-.64l-2.03-.508L16.88 2.59a.333.333 0 00-.213-.59H8.333a1.33 1.33 0 00-1.164.698C3.396 3.503.667 6.73.667 10.418c0 .147.005.293.013.438a.325.325 0 00.016.196c.338 4.025 3.857 7.21 8.163 7.278l1.315 1.318a1.126 1.126 0 00.823.351c.324-.019.625-.172.83-.424l.963-1.2c.006-.007.007-.016.012-.023.044-.03.087-.062.127-.096a1.253 1.253 0 000-1.845 1.23 1.23 0 00-.125-.093c-.006-.008-.008-.018-.014-.027l-.974-1.212a1.147 1.147 0 00-.819-.412 1.124 1.124 0 00-.823.352L8.87 16.326c-1.384-.053-2.485-.93-3.07-2.326h.203c.216.005.42.105.555.274l.522.61a.333.333 0 00.506-.434l-.522-.61a1.41 1.41 0 00-1.061-.507H5.57a6.264 6.264 0 01-.144-.666h.688c.266 0 .52.106.708.293l.61.609a.333.333 0 00.47-.471l-.61-.61A1.655 1.655 0 006.116 12H5.35a7.707 7.707 0 01-.017-.492c0-.06.004-.116.005-.175h.888c.314-.002.618.107.858.309l.697.61a.333.333 0 00.439-.503l-.697-.61a1.963 1.963 0 00-1.297-.472h-.852c.118-1.185.5-2.088 1.138-2.706.002 0 .004.003.006.004l2.042 1.02a1 1 0 01.542.754l.235 1.642a.333.333 0 10.66-.095l-.235-1.641a1.666 1.666 0 00-.904-1.256L7.1 7.511a3.72 3.72 0 01.98-.394.308.308 0 00.038-.018c.288.361.744.547 1.202.489a.355.355 0 00.061-.014l1.57-.504A4.62 4.62 0 0014.73 9a4.558 4.558 0 004.603-4.5A4.558 4.558 0 0014.73 0zm-3.413 19.145a.5.5 0 01-.34.188.446.446 0 01-.331-.156l-.768-.77 1.904.16-.465.578zm-.671-3.655a.475.475 0 01.322-.157h.01a.489.489 0 01.329.176l.475.592-1.904.158.768-.77zm-1.313 1.483l2.698-.225a.587.587 0 110 1.17l-2.698-.225v-.72zm-4.666-5.465c0 3.09 1.629 5.284 4 5.474v.677c-3.601-.147-6.564-2.652-7.204-5.92.363.215.777.33 1.199.332h.05a.333.333 0 00-.008-.667h-.041c-.5-.017-.973-.23-1.318-.59a6.79 6.79 0 01.204-2.07 2.487 2.487 0 001.603.724.333.333 0 00.019-.666 1.96 1.96 0 01-1.38-.79c-.003-.005-.009-.007-.013-.012a7.184 7.184 0 011.066-1.88 2.51 2.51 0 001.384 1.196.333.333 0 10.21-.632A1.95 1.95 0 013.32 5.57 7.709 7.709 0 017 3.425v.193c0 1.014.258 2.013.75 2.9-1.446.417-3.083 1.63-3.083 4.99zm6.574-5.232a3.801 3.801 0 01-.258-.597.333.333 0 10-.633.21c.069.203.152.402.249.594l-1.388.446a.663.663 0 01-.61-.296l-.039-.057a5.318 5.318 0 01-.895-2.958v-.284c0-.368.298-.667.666-.667h7.413l-1.293 1.077a.333.333 0 00.133.58l1.534.383-4.88 1.57z"/></g><defs><clipPath id="clip0"/></defs></svg>