<svg width="20" height="20" fill="none" xmlns="http://www.w3.org/2000/svg"><g clip-path="url(#clip0)" fill="#FF7F8E"><path d="M3.52 15.574a7.07 7.07 0 002.575 3.208A6.967 6.967 0 009.986 20H10a6.967 6.967 0 003.89-1.218 7.075 7.075 0 002.548-3.144.326.326 0 00.044-.1 7.05 7.05 0 00.313-4.212c-.355-1.479-1.2-2.558-2.038-3.536l-.482-.557a19.176 19.176 0 01-2.1-2.726A16.627 16.627 0 0110.48.367a.508.508 0 00-.976.002 16.625 16.625 0 01-1.692 4.138c-.617.97-1.32 1.882-2.1 2.726-.162.185-.322.371-.483.557-.837.978-1.683 2.057-2.037 3.536a6.844 6.844 0 00-.171 1.133v.01c-.07 1.06.1 2.12.498 3.105zm.156-2.482a2.076 2.076 0 002.869 0 1.415 1.415 0 012.02 0 2.072 2.072 0 002.867 0 1.415 1.415 0 012.021 0 2.072 2.072 0 002.859.008 6.398 6.398 0 01-.433 2.159c-.262.264-.62.411-.992.408a1.402 1.402 0 01-1.013-.425 2.072 2.072 0 00-2.866 0 1.416 1.416 0 01-2.021 0 2.071 2.071 0 00-2.867 0 1.416 1.416 0 01-2.018.004 6.397 6.397 0 01-.429-2.155l.003.001zm9.839 5.141a6.294 6.294 0 01-3.515 1.1h-.007a6.28 6.28 0 01-3.523-1.102 6.378 6.378 0 01-1.85-1.952c.16.037.325.055.49.054a2.059 2.059 0 001.433-.576 1.415 1.415 0 012.021 0 2.072 2.072 0 002.867 0 1.415 1.415 0 012.021 0c.385.371.9.578 1.435.576.16.001.32-.016.477-.05a6.383 6.383 0 01-1.849 1.95zM5.736 8.223c.158-.184.319-.368.479-.552a19.726 19.726 0 002.172-2.825 16.749 16.749 0 001.606-3.76 16.76 16.76 0 001.607 3.76 19.67 19.67 0 002.171 2.825l.479.552c.784.917 1.576 1.923 1.896 3.258.062.268.107.539.133.812a3.659 3.659 0 00-.384.284 1.417 1.417 0 01-2.022 0 2.072 2.072 0 00-2.866 0 1.416 1.416 0 01-2.021 0 2.071 2.071 0 00-2.867 0 1.42 1.42 0 01-2.025 0 3.66 3.66 0 00-.39-.289 6.22 6.22 0 01.133-.806c.323-1.336 1.115-2.342 1.899-3.259z"/><path d="M4.736 12.037a.333.333 0 00.402-.246c.229-.954.764-1.712 1.612-2.7.156-.182.312-.361.472-.545l.039-.045c.391-.452.796-.92 1.188-1.406a.333.333 0 10-.518-.419c-.386.478-.787.941-1.174 1.39l-.038.043a102.5 102.5 0 00-.475.549c-.914 1.066-1.494 1.894-1.755 2.979a.333.333 0 00.247.4zm4.122-6.065c.155.1.361.055.461-.1.074-.115.145-.231.215-.349a.333.333 0 10-.574-.339c-.065.111-.133.22-.202.328-.1.155-.054.36.1.46z"/></g><defs><clipPath id="clip0"/></defs></svg>