<svg width="37" height="37" fill="none" xmlns="http://www.w3.org/2000/svg"><path d="M31.219 26.45a1.445 1.445 0 10-.001 2.89 1.445 1.445 0 000-2.89zm-.723-5.782a.723.723 0 100 1.446.723.723 0 000-1.446zM9.105 26.45a1.445 1.445 0 100 2.889 1.445 1.445 0 000-2.89z" fill="#929292"/><path d="M33.963 17.824l-1.246-4.984a2.15 2.15 0 00.67-1.566 2.17 2.17 0 00-2.168-2.169h-5.782V6.938A2.17 2.17 0 0023.27 4.77H2.169A2.17 2.17 0 000 6.938v18.789a2.17 2.17 0 002.168 2.168H4.77a4.34 4.34 0 004.335 4.335 4.34 4.34 0 004.336-4.335h13.442a4.34 4.34 0 004.336 4.335 4.34 4.34 0 004.336-4.335c0-.042-.002-.083-.003-.124A2.171 2.171 0 0037 25.727V21.39a3.619 3.619 0 00-3.037-3.567zm-2.586-4.383l1.084 4.336H26.46l1.657-1.657a.722.722 0 10-1.021-1.022l-1.657 1.657v-3.314h5.94zm.564-2.168a.723.723 0 01-.722.723h-5.782v-1.445h5.782c.398 0 .722.324.722.723zM9.105 30.785a2.894 2.894 0 01-2.89-2.89 2.895 2.895 0 012.89-2.891 2.895 2.895 0 012.891 2.89 2.894 2.894 0 01-2.89 2.891zm4.088-4.336a4.351 4.351 0 00-4.088-2.89 4.351 4.351 0 00-4.088 2.89H2.168a.723.723 0 01-.723-.722V6.937c0-.398.324-.722.723-.722H23.27c.398 0 .722.324.722.723v19.511H13.193zm18.026 4.336a2.894 2.894 0 01-2.89-2.89 2.895 2.895 0 012.89-2.891 2.895 2.895 0 012.89 2.89 2.894 2.894 0 01-2.89 2.891zm4.036-4.474a4.352 4.352 0 00-4.036-2.752 4.35 4.35 0 00-4.088 2.89h-1.694v-7.226h7.95c.942 0 1.745.604 2.044 1.445h-2.044a.723.723 0 100 1.445h2.168v3.614c0 .24-.119.453-.3.584z" fill="#929292"/><path d="M12.719 9.105a6.511 6.511 0 00-6.504 6.504 6.511 6.511 0 006.504 6.504 6.511 6.511 0 006.504-6.504 6.511 6.511 0 00-6.504-6.504zm0 11.563a5.064 5.064 0 01-5.059-5.059c0-2.789 2.27-5.058 5.059-5.058s5.058 2.27 5.058 5.058a5.064 5.064 0 01-5.058 5.059z" fill="#929292"/><path d="M15.61 14.887h-2.17v-2.168a.723.723 0 10-1.445 0v2.89c0 .4.324.723.723.723h2.89a.723.723 0 100-1.445z" fill="#929292"/></svg>