<svg width="27" height="27" fill="none" xmlns="http://www.w3.org/2000/svg"><path d="M15.677 26.824zm.27-.046c-.054.01-.108.02-.161.028l.16-.028zm-.91.134zm.259-.032zm1.018-.175zm.912-.226c-.038.01-.076.02-.114.032l.114-.032zm-.276.075l-.125.033.126-.033zm-.36.09l-.133.03.133-.03zm-1.955.308zM27 13.5C27 6.045 20.955 0 13.5 0S0 6.045 0 13.5 6.045 27 13.5 27c.08 0 .158-.002.237-.003v-10.51h-2.9v-3.38h2.9V10.62c0-2.885 1.761-4.455 4.335-4.455 1.232 0 2.291.092 2.6.133v3.015h-1.775c-1.4 0-1.67.666-1.67 1.642v2.153h3.347l-.437 3.38h-2.91v9.99C22.868 24.861 27 19.662 27 13.5zM14.392 26.97zm-.43.021z" fill="#C8C8C8"/></svg>