<svg width="27" height="27" fill="none" xmlns="http://www.w3.org/2000/svg"><path d="M16.084 13.5a2.584 2.584 0 11-5.168 0 2.584 2.584 0 015.168 0z" fill="#C8C8C8"/><path d="M19.543 8.928a2.402 2.402 0 00-.58-.891 2.4 2.4 0 00-.891-.58c-.273-.106-.684-.232-1.44-.267-.817-.037-1.062-.045-3.132-.045-2.07 0-2.315.008-3.133.045-.755.035-1.166.16-1.439.267a2.399 2.399 0 00-.891.58c-.258.25-.456.554-.58.891-.106.273-.233.684-.267 1.44-.037.817-.045 1.062-.045 3.132 0 2.07.008 2.315.045 3.133.034.756.16 1.166.267 1.439.124.337.322.641.58.891a2.4 2.4 0 00.89.58c.274.107.685.233 1.44.267.818.038 1.063.045 3.133.045 2.07 0 2.315-.008 3.132-.045.756-.034 1.167-.16 1.44-.267a2.567 2.567 0 001.471-1.471c.106-.273.232-.683.267-1.44.037-.817.045-1.062.045-3.132 0-2.07-.008-2.315-.045-3.132-.034-.756-.16-1.167-.267-1.44zM13.5 17.481a3.98 3.98 0 110-7.962 3.98 3.98 0 010 7.962zm4.138-7.189a.93.93 0 110-1.86.93.93 0 010 1.86z" fill="#C8C8C8"/><path d="M13.5 0C6.045 0 0 6.045 0 13.5S6.045 27 13.5 27 27 20.955 27 13.5 20.955 0 13.5 0zm7.705 16.696c-.037.825-.168 1.389-.36 1.882a3.964 3.964 0 01-2.267 2.267c-.493.192-1.057.323-1.882.36-.827.038-1.09.047-3.196.047-2.105 0-2.37-.01-3.196-.047-.825-.037-1.389-.168-1.882-.36a3.798 3.798 0 01-1.373-.894 3.8 3.8 0 01-.894-1.373c-.191-.493-.323-1.057-.36-1.882-.038-.827-.047-1.09-.047-3.196 0-2.105.009-2.37.047-3.196.037-.825.168-1.389.36-1.882.195-.517.5-.986.894-1.373.387-.394.856-.7 1.373-.894.493-.191 1.057-.323 1.882-.36.827-.038 1.09-.047 3.196-.047 2.105 0 2.37.01 3.196.047.825.037 1.389.169 1.882.36a3.8 3.8 0 011.373.894c.394.388.7.856.894 1.373.192.493.323 1.057.36 1.882.038.827.047 1.09.047 3.196 0 2.105-.009 2.37-.047 3.196z" fill="#C8C8C8"/></svg>