<svg width="41" height="41" fill="none" xmlns="http://www.w3.org/2000/svg"><path d="M20.5 20.5a.801.801 0 100-1.603.801.801 0 000 1.602z" fill="#fff"/><path d="M37.797 14.093H33.06L25.777 4.07a2.401 2.401 0 00-4.174 2.38.826.826 0 00.062.095l5.713 7.547H13.621l5.714-7.547a.869.869 0 00.062-.094 2.402 2.402 0 00-4.173-2.382L7.939 14.093H3.203A3.207 3.207 0 000 17.296c0 1.393.904 2.606 2.177 3.035a.797.797 0 00.49.168.798.798 0 01.788.657L6.18 36.144a2.402 2.402 0 002.364 1.972h23.912c1.162 0 2.156-.83 2.364-1.972l2.724-14.987a.799.799 0 01.789-.658.796.796 0 00.492-.17A3.211 3.211 0 0041 17.296a3.207 3.207 0 00-3.203-3.203zM22.98 5.632a.8.8 0 011.421-.738.759.759 0 00.053.082l6.626 9.117h-1.694L22.98 5.632zm-6.436-.655a.885.885 0 00.052-.082.8.8 0 011.421.737l-6.405 8.46H9.919l6.626-9.115zm21.252 13.92H23.703a.8.8 0 00-.8.801c0 .443.358.793.8.793h12.364c-.042.12-.075.243-.098.37l-2.725 14.996a.8.8 0 01-.788.658H8.544a.8.8 0 01-.789-.657L5.031 20.87a2.416 2.416 0 00-.098-.37h12.364a.8.8 0 100-1.602H3.203c-.89 0-1.601-.726-1.601-1.602 0-.883.718-1.602 1.601-1.602h34.594c.883 0 1.601.719 1.601 1.602 0 .89-.727 1.602-1.601 1.602z" fill="#fff"/><path d="M20.5 22.901a2.405 2.405 0 00-2.402 2.403v6.406a2.405 2.405 0 002.402 2.402 2.405 2.405 0 002.402-2.402v-6.406A2.402 2.402 0 0020.5 22.9zm.8 8.809a.802.802 0 01-1.6 0v-6.406a.802.802 0 011.6 0v6.406zm7.208 2.402a2.405 2.405 0 002.402-2.402v-6.406a2.402 2.402 0 10-4.805 0v6.406a2.405 2.405 0 002.403 2.402zm-.801-8.808a.802.802 0 011.602 0v6.406a.802.802 0 01-1.602 0v-6.406zm-15.215-2.403a2.405 2.405 0 00-2.402 2.403v6.406a2.405 2.405 0 002.402 2.402 2.405 2.405 0 002.402-2.402v-6.406a2.402 2.402 0 00-2.402-2.403zm.801 8.809a.802.802 0 01-1.602 0v-6.406a.802.802 0 011.602 0v6.406z" fill="#fff"/></svg>