<svg width="37" height="38" fill="none" xmlns="http://www.w3.org/2000/svg"><path d="M31.219 27.107a1.445 1.445 0 10-.001 2.89 1.445 1.445 0 000-2.89zm-.723-5.782a.723.723 0 10.001 1.447.723.723 0 000-1.447zM9.105 27.107a1.445 1.445 0 100 2.89 1.445 1.445 0 000-2.89z" fill="#929292"/><path d="M33.963 18.481l-1.246-4.984a2.15 2.15 0 00.67-1.566 2.17 2.17 0 00-2.168-2.168h-5.782V7.595a2.17 2.17 0 00-2.168-2.168h-21.1A2.17 2.17 0 000 7.595v18.789a2.17 2.17 0 002.168 2.168H4.77a4.34 4.34 0 004.335 4.336 4.34 4.34 0 004.336-4.336h13.442a4.34 4.34 0 004.336 4.336 4.34 4.34 0 004.336-4.336l-.003-.123A2.171 2.171 0 0037 26.384v-4.336a3.619 3.619 0 00-3.037-3.567zM31.377 14.1l1.084 4.336H26.46l1.657-1.657a.722.722 0 10-1.021-1.022l-1.657 1.657V14.1h5.94zm.564-2.168a.723.723 0 01-.722.723h-5.782v-1.446h5.782c.398 0 .722.324.722.723zM9.105 31.443a2.894 2.894 0 01-2.89-2.891c0-1.616 1.32-2.89 2.89-2.89a2.895 2.895 0 012.891 2.89 2.894 2.894 0 01-2.89 2.89zm4.088-4.336a4.351 4.351 0 00-4.088-2.89 4.35 4.35 0 00-4.088 2.89H2.168a.723.723 0 01-.723-.723V7.595c0-.399.324-.723.723-.723H23.27c.398 0 .722.324.722.723v19.512H13.193zm18.026 4.336a2.894 2.894 0 01-2.89-2.891c0-1.616 1.32-2.89 2.89-2.89a2.895 2.895 0 012.89 2.89 2.894 2.894 0 01-2.89 2.89zm4.036-4.474a4.352 4.352 0 00-4.036-2.753 4.35 4.35 0 00-4.088 2.89h-1.694V19.88h7.95c.942 0 1.745.604 2.044 1.445h-2.044a.723.723 0 100 1.446h2.168v3.613c0 .24-.119.453-.3.585z" fill="#929292"/><path d="M12.719 9.763a6.511 6.511 0 00-6.504 6.504 6.511 6.511 0 006.504 6.504 6.511 6.511 0 006.504-6.504 6.511 6.511 0 00-6.504-6.504zm0 11.562a5.064 5.064 0 01-5.059-5.058c0-2.79 2.27-5.059 5.059-5.059s5.058 2.27 5.058 5.059a5.063 5.063 0 01-5.058 5.058z" fill="#929292"/><path d="M15.61 15.544h-2.17v-2.168a.723.723 0 10-1.445 0v2.89c0 .4.324.724.723.724h2.89a.723.723 0 100-1.446z" fill="#929292"/></svg>