<svg width="20" height="20" fill="none" xmlns="http://www.w3.org/2000/svg"><path d="M19.985 7.719a.294.294 0 00-.019-.102.511.511 0 00-.201-.284l-2.863-1.99V3.208a.512.512 0 00-.512-.512h-3.294L10.294.748a.512.512 0 00-.584 0L6.89 2.696H3.61a.512.512 0 00-.512.512v2.108L.221 7.306a.511.511 0 00-.22.414L0 7.729l.015 11.103a.512.512 0 00.512.511h.001l18.96-.026c.283 0 .512-.23.512-.513L19.985 7.72zM16.902 6.59l1.637 1.138-1.637 1.137V6.59zm-6.901-4.798l1.3.905h-2.61l1.31-.905zm-5.878 1.93h11.755v5.856L11.93 12.32l-1.61-1.248-.006-.005a.512.512 0 00-.621.005l-1.62 1.258-3.95-2.73V3.721zm-1.025 2.84v2.33L1.413 7.727l1.685-1.164zM1.026 8.707l6.198 4.283-6.186 4.798-.012-9.081zm1 9.61l7.982-6.19 7.953 6.169-15.935.022zM12.78 12.98l6.183-4.298.012 9.104-6.195-4.806z" fill="#FF7F8E"/><path d="M13.468 5.77H6.533a.512.512 0 000 1.024h6.935a.512.512 0 000-1.024zm0 2.663H6.533a.512.512 0 000 1.025h6.935a.512.512 0 000-1.025z" fill="#FF7F8E"/></svg>