<svg width="20" height="20" fill="none" xmlns="http://www.w3.org/2000/svg"><path d="M9.996 0c-4.42 0-8.017 3.597-8.017 8.017a7.891 7.891 0 00.197 1.773c.122.541.302 1.074.537 1.581.864 2.034 2.763 5.157 6.93 8.503a.57.57 0 00.713 0c4.164-3.346 6.068-6.47 6.931-8.503a7.81 7.81 0 00.591-1.849 8.248 8.248 0 00.143-1.505C18.013 3.597 14.415 0 9.996 0zm6.759 9.325c0 .008-.005.017-.005.025a6.544 6.544 0 01-.037.18v.009c-.105.47-.26.926-.466 1.367-.004.004-.004.012-.008.016-.784 1.858-2.503 4.692-6.243 7.782-3.74-3.09-5.46-5.924-6.243-7.782-.005-.004-.005-.012-.009-.016a7.102 7.102 0 01-.465-1.367V9.53c-.025-.096-.034-.159-.038-.18 0-.008-.004-.017-.004-.03a6.847 6.847 0 01-.126-1.307c0-3.795 3.09-6.885 6.885-6.885 3.794 0 6.885 3.09 6.885 6.885 0 .444-.042.884-.126 1.312z" fill="#FF7F8E"/><path d="M9.996 3.015a5.098 5.098 0 00-5.09 5.09 5.098 5.098 0 005.09 5.09 5.098 5.098 0 005.09-5.09 5.098 5.098 0 00-5.09-5.09zm0 9.048a3.963 3.963 0 01-3.958-3.958 3.965 3.965 0 013.958-3.958 3.965 3.965 0 013.958 3.958 3.963 3.963 0 01-3.958 3.958z" fill="#FF7F8E"/></svg>