<svg width="19" height="19" fill="none" xmlns="http://www.w3.org/2000/svg"><g clip-path="url(#clip0)"><path d="M1.106 10.606C1.106 15.235 4.87 19 9.5 19c4.628 0 8.394-3.765 8.394-8.394a.498.498 0 00-.996 0c0 4.08-3.319 7.398-7.398 7.398-4.08 0-7.399-3.319-7.399-7.398 0-4.08 3.32-7.398 7.399-7.398h.863L9.128 4.59a.498.498 0 00.743.664l1.765-1.977a.851.851 0 000-1.135L9.871.166a.496.496 0 00-.703-.04.498.498 0 00-.04.704l1.235 1.382H9.5c-4.629 0-8.394 3.766-8.394 8.394z" fill="#fff"/></g><defs><clipPath id="clip0"/></defs></svg>