<svg width="37" height="37" fill="none" xmlns="http://www.w3.org/2000/svg"><g clip-path="url(#clip0)" fill="#929292"><path d="M33.705 6.39A61.678 61.678 0 0118.896.107a.778.778 0 00-.79 0C13.375 2.9 8.531 4.955 3.295 6.39a.778.778 0 00-.572.75v7.953c0 8.19 3.778 13.61 6.947 16.716C13.083 35.15 17.058 37 18.501 37c1.443 0 5.417-1.849 8.83-5.192 3.169-3.105 6.947-8.526 6.947-16.716V7.14a.778.778 0 00-.573-.75zm-.984 8.702c0 7.649-3.524 12.707-6.48 15.604-3.355 3.287-6.943 4.747-7.74 4.747-.798 0-4.385-1.46-7.74-4.747-2.957-2.897-6.48-7.955-6.48-15.604V7.731A61.297 61.297 0 0018.5 1.68a63.236 63.236 0 0014.22 6.05v7.361z"/><path d="M11.602 7.643a.778.778 0 00-1.01-.438 63.327 63.327 0 01-4.241 1.498.778.778 0 00-.545.743v3.006a.778.778 0 001.556 0v-2.437a64.879 64.879 0 003.801-1.362.78.78 0 00.44-1.01zm1.478.147c.105 0 .211-.02.313-.064l.014-.007a.777.777 0 00.399-1.024.78.78 0 00-1.027-.4l-.013.006a.776.776 0 00.315 1.49zm14.694 17.306a.779.779 0 00-1.078.226 18.941 18.941 0 01-2.236 2.794 19.885 19.885 0 01-2.233 1.986.778.778 0 00.944 1.238 21.51 21.51 0 002.408-2.142 20.479 20.479 0 002.42-3.024.778.778 0 00-.225-1.078zm-7.354 6.227l-.045.026a.778.778 0 10.78 1.347l.051-.03a.778.778 0 10-.787-1.343zm-7.225-14.412a2.514 2.514 0 00-1.79-.74 2.52 2.52 0 00-1.789.74 2.534 2.534 0 000 3.58l4.596 4.596c.478.477 1.113.74 1.79.74.675 0 1.311-.263 1.789-.74l9.594-9.595a2.534 2.534 0 000-3.579 2.515 2.515 0 00-1.79-.74c-.676 0-1.311.262-1.79.74l-7.804 7.804-2.806-2.806zm11.711-3.897a.968.968 0 01.69-.285.975.975 0 01.689 1.663l-9.595 9.594a.968.968 0 01-.689.285.968.968 0 01-.689-.285l-4.595-4.596a.975.975 0 011.377-1.378l3.357 3.357a.779.779 0 001.1 0l8.355-8.355z"/></g><defs><clipPath id="clip0"/></defs></svg>