<svg width="20" height="20" fill="none" xmlns="http://www.w3.org/2000/svg"><path d="M15.806 12.39c-.41-.427-.903-.655-1.426-.655-.52 0-1.018.224-1.444.65l-1.334 1.33c-.11-.06-.22-.114-.325-.17a5.39 5.39 0 01-.418-.223c-1.25-.793-2.385-1.828-3.474-3.166-.527-.667-.882-1.228-1.14-1.798.347-.317.667-.646.98-.962l.354-.36c.887-.886.887-2.034 0-2.92L6.427 2.963c-.13-.13-.266-.266-.393-.4a19.93 19.93 0 00-.793-.786c-.41-.405-.9-.62-1.414-.62-.515 0-1.013.215-1.435.62l-.009.009L.948 3.234a3.088 3.088 0 00-.916 1.962C-.07 6.43.294 7.577.572 8.328c.684 1.845 1.706 3.555 3.23 5.387a19.863 19.863 0 006.614 5.179c.97.46 2.267 1.005 3.714 1.097.09.005.182.009.266.009.975 0 1.794-.35 2.436-1.047.004-.008.013-.013.017-.021.22-.266.473-.507.739-.764.181-.173.367-.355.548-.545.418-.434.638-.94.638-1.46 0-.524-.224-1.026-.65-1.448l-2.318-2.326zm1.511 4.444c-.004 0-.004.004 0 0-.164.177-.333.338-.515.515-.274.262-.552.536-.814.844-.426.456-.929.671-1.587.671-.064 0-.131 0-.194-.004-1.254-.08-2.42-.57-3.293-.988a18.751 18.751 0 01-6.23-4.88c-1.44-1.734-2.402-3.338-3.04-5.06-.392-1.051-.536-1.87-.472-2.643.042-.494.232-.903.582-1.253l1.44-1.44c.206-.194.426-.3.641-.3.266 0 .481.16.616.296l.013.013c.258.24.502.49.76.755.13.135.266.27.4.41l1.153 1.152c.448.447.448.861 0 1.309-.122.122-.24.244-.363.363-.354.363-.692.7-1.06 1.03-.008.008-.016.012-.02.02-.363.364-.296.718-.22.959l.013.038c.3.726.722 1.41 1.363 2.224l.004.005c1.166 1.435 2.394 2.553 3.749 3.41.173.11.35.199.52.283.151.076.294.148.417.224.017.008.034.02.05.03a.915.915 0 00.418.105c.35 0 .57-.22.642-.291l1.444-1.444c.143-.143.371-.317.637-.317.262 0 .477.165.608.309l.008.008 2.326 2.326c.435.43.435.874.005 1.321zM10.809 4.757c1.105.186 2.11.71 2.912 1.512a5.38 5.38 0 011.511 2.912.566.566 0 00.562.473.57.57 0 00.566-.667 6.51 6.51 0 00-1.829-3.525 6.51 6.51 0 00-3.524-1.827.573.573 0 00-.659.464.564.564 0 00.46.658zm9.168 4.065a10.711 10.711 0 00-3.01-5.804 10.71 10.71 0 00-5.804-3.01.568.568 0 00-.654.465.573.573 0 00.468.659 9.59 9.59 0 015.188 2.688 9.563 9.563 0 012.689 5.188.566.566 0 00.561.473.56.56 0 00.561-.659z" fill="#FF7F8E"/></svg>