<svg width="27" height="27" fill="none" xmlns="http://www.w3.org/2000/svg"><path d="M.75 13.5c0 7.042 5.708 12.75 12.75 12.75s12.75-5.708 12.75-12.75S20.542.75 13.5.75.75 6.458.75 13.5z" stroke="#FF7F8E" stroke-width="1.5"/><path d="M10.49 14.81a5.055 5.055 0 01-2.004-4.035c0-2.783 2.25-5.048 5.014-5.048 2.765 0 5.015 2.265 5.015 5.048a5.055 5.055 0 01-2.005 4.034 8.66 8.66 0 015.58 8.1h-1.55c0-3.907-3.159-7.086-7.04-7.086-3.881 0-7.04 3.179-7.04 7.086H4.91a8.66 8.66 0 015.58-8.1zm6.473-4.035c0-1.922-1.553-3.486-3.463-3.486-1.91 0-3.463 1.564-3.463 3.486 0 1.922 1.554 3.486 3.463 3.486 1.91 0 3.463-1.564 3.463-3.486z" fill="#FF7F8E"/></svg>