<svg width="27" height="27" fill="none" xmlns="http://www.w3.org/2000/svg"><path d="M13.5 0C6.044 0 0 6.044 0 13.5S6.044 27 13.5 27 27 20.956 27 13.5 20.956 0 13.5 0zm6.848 14.96c.63.615 1.295 1.193 1.86 1.871.25.3.486.61.665.96.257.497.025 1.042-.42 1.072h-2.766c-.714.058-1.283-.23-1.762-.718-.382-.39-.737-.805-1.106-1.207a2.59 2.59 0 00-.498-.444c-.377-.245-.704-.17-.92.224-.22.401-.27.845-.292 1.291-.03.652-.226.823-.88.853-1.4.066-2.726-.146-3.959-.851-1.088-.622-1.93-1.5-2.663-2.493-1.429-1.937-2.523-4.063-3.506-6.25-.221-.492-.06-.755.484-.766a76.924 76.924 0 012.708 0c.368.005.61.216.752.562a16.805 16.805 0 001.835 3.401c.2.282.403.563.694.763.32.22.564.147.716-.21.096-.228.138-.471.159-.715.072-.834.08-1.669-.044-2.5-.077-.52-.37-.856-.888-.954-.264-.05-.226-.148-.097-.298.223-.261.431-.423.849-.423h3.125c.492.097.602.318.67.814l.002 3.472c-.006.192.096.761.441.887.277.091.459-.13.624-.305.75-.796 1.283-1.734 1.761-2.706.211-.428.393-.871.57-1.315.132-.329.336-.49.707-.485l3.009.004c.088 0 .179 0 .266.016.508.086.646.305.49.8-.247.776-.727 1.424-1.196 2.073-.503.695-1.039 1.366-1.537 2.064-.457.638-.421.959.147 1.513z" fill="#C8C8C8"/></svg>